<svg version="1.1" id="Layer_1" xmlns="http://www.w3.org/2000/svg" xmlns:xlink="http://www.w3.org/1999/xlink" x="0px" y="0px"
	 width="100%" viewBox="0 0 1254 1254" enable-background="new 0 0 1254 1254" xml:space="preserve">
<path fill="#FEFEFE" opacity="1.000000" stroke="none" 
	d="
M547.000000,1255.000000 
	C364.666656,1255.000000 182.833328,1255.000000 1.000000,1255.000000 
	C1.000000,837.000000 1.000000,419.000000 1.000000,1.000000 
	C419.000000,1.000000 837.000000,1.000000 1255.000000,1.000000 
	C1255.000000,419.000000 1255.000000,837.000000 1255.000000,1255.000000 
	C1019.166687,1255.000000 783.333313,1255.000000 547.000000,1255.000000 
M572.486938,699.240906 
	C572.486938,699.240906 572.448364,699.470581 572.655151,700.008362 
	C573.053650,700.406555 573.452209,700.804749 573.900146,701.097229 
	C573.900146,701.097229 573.792358,701.142029 573.961609,701.759949 
	C575.165710,703.233154 576.369751,704.706299 577.827332,706.834473 
	C582.143799,712.255188 586.460266,717.675903 591.004456,723.761597 
	C594.950867,728.702271 598.897278,733.642944 603.030090,739.187988 
	C611.267090,749.667725 619.504089,760.147461 627.982239,771.223633 
	C637.250000,782.985840 646.517700,794.747986 656.003845,807.118958 
	C657.714050,809.354065 659.210876,811.807800 661.204285,813.752686 
	C662.705811,815.217773 664.822571,816.940308 666.701660,816.983582 
	C677.465820,817.231750 688.240845,817.012207 699.932556,817.127502 
	C718.617798,817.127502 737.303040,817.127502 757.210449,817.127502 
	C740.255005,796.088623 724.115173,776.061829 708.002441,756.002808 
	C708.002441,756.002808 707.966797,756.023315 707.755493,755.382690 
	C704.232666,751.139954 700.709778,746.897217 696.966614,742.031006 
	C683.707886,725.547852 670.449097,709.064697 657.006958,691.948669 
	C652.874084,686.755249 648.681641,681.606934 644.669189,676.322083 
	C644.030334,675.480591 644.199890,674.025391 644.809692,672.954346 
	C649.274597,671.663696 653.739441,670.373108 658.800781,669.071472 
	C659.195007,669.026489 659.589294,668.981506 660.752686,669.100098 
	C674.173096,665.197754 686.781494,659.594971 698.775391,651.099487 
	C701.908630,648.615051 705.041870,646.130615 708.839294,643.378418 
	C709.366272,642.973511 709.912231,642.590881 710.417542,642.160583 
	C761.390930,598.751709 766.998596,520.594727 722.630615,470.367157 
	C719.323242,466.623016 715.228210,463.556793 711.392029,460.301910 
	C705.801514,455.558502 700.113586,450.929932 694.438477,446.290314 
	C694.438477,446.290314 694.418823,446.253998 694.055542,445.827423 
	C693.382202,445.519348 692.708801,445.211304 691.641907,444.353821 
	C680.428711,437.921600 668.800598,432.518616 655.396179,429.563385 
	C640.492859,425.701965 625.343445,424.422913 609.070068,425.078278 
	C600.377808,425.119080 591.685486,425.159851 582.067505,425.051392 
	C572.376526,425.106506 562.685547,425.161621 552.114685,425.062622 
	C550.029785,425.253571 547.943359,425.621338 545.860168,425.604187 
	C537.903320,425.538757 529.947388,425.349365 521.066101,425.054230 
	C495.373627,425.103119 469.681183,425.152008 443.062286,425.058807 
	C434.039642,425.103455 425.017029,425.148132 415.069214,425.038818 
	C403.376495,425.094604 391.683807,425.150391 379.066254,425.052246 
	C367.378448,425.097290 355.690613,425.142334 343.494019,425.035034 
	C343.333252,425.109283 343.172485,425.183502 342.232819,425.571075 
	C342.228180,445.392853 342.223511,465.214630 342.048340,485.562347 
	C342.340302,485.719299 342.632263,485.876282 343.838196,486.301697 
	C378.571960,486.309326 413.305756,486.334991 448.039520,486.311401 
	C456.341431,486.305756 464.643188,486.135956 473.866180,486.290161 
	C492.902252,486.216736 511.938293,486.143311 531.758667,486.300720 
	C532.840332,486.236450 533.921936,486.172180 535.904602,486.315887 
	C539.596436,486.244324 543.288269,486.172760 547.902771,486.297333 
	C557.273071,486.231262 566.643311,486.165161 576.927612,486.318665 
	C584.951904,486.245667 592.976257,486.172668 601.914185,486.302917 
	C606.600037,486.243591 611.285889,486.184265 616.800171,486.325287 
	C620.197083,486.533020 623.593994,486.740723 627.585083,487.173340 
	C628.003357,487.239258 628.421692,487.305206 629.292419,487.887390 
	C630.196106,487.903381 631.099731,487.919342 632.751770,488.155609 
	C633.771790,488.345917 634.791748,488.536255 636.402588,489.069519 
	C643.930237,492.736420 651.457947,496.403320 659.314087,500.647034 
	C679.580261,517.184326 688.789062,537.936401 682.932556,564.095520 
	C679.762573,578.254395 671.478027,589.399231 660.128357,599.076355 
	C659.001587,599.974915 657.948914,600.991577 656.736145,601.753174 
	C647.872925,607.319275 638.325989,611.179565 627.254395,613.000793 
	C626.507019,613.137390 625.759583,613.273926 624.285950,613.264709 
	C622.830872,613.832520 621.375793,614.400391 619.020203,614.779968 
	C615.013428,614.855774 611.006653,614.931519 606.669373,614.827881 
	C606.669373,614.827881 606.297180,614.881897 606.043335,614.287964 
	C605.594543,614.485474 605.145752,614.682983 603.803223,614.782043 
	C597.960632,614.820129 592.118042,614.858215 586.073547,614.325684 
	C585.719055,614.213196 585.364624,614.100769 584.105164,613.791626 
	C580.404358,613.852966 576.703613,613.914246 572.082214,613.799927 
	C565.917969,613.867126 559.753723,613.934326 552.877991,613.819458 
	C537.234375,613.819458 521.590820,613.819458 505.050140,613.819458 
	C514.052490,625.283264 522.241638,635.754944 530.478088,646.189453 
	C541.911316,660.674011 553.380005,675.130554 564.861877,689.899109 
	C564.861877,689.899109 565.142700,690.008484 565.317810,690.567383 
	C565.850952,691.125122 566.384155,691.682861 566.932312,692.648071 
	C567.037170,692.935608 567.241699,693.095276 567.775146,693.689148 
	C568.084534,693.933167 568.393982,694.177246 568.678955,694.223206 
	C568.678955,694.223206 568.519348,694.342957 568.706055,694.902161 
	C569.101685,695.320923 569.497314,695.739685 569.937866,696.066833 
	C569.937866,696.066833 569.840271,696.096619 569.979553,696.680359 
	C570.522583,697.250122 571.065613,697.819885 571.851379,698.225098 
	C571.851379,698.225098 571.578918,698.333557 571.736572,698.827698 
	C571.997620,699.042297 572.258667,699.256897 572.486938,699.240906 
M378.592712,726.546082 
	C378.592712,726.546082 378.565308,726.536865 377.938690,726.799500 
	C371.169464,732.335815 365.036316,739.005493 357.525665,743.220825 
	C315.284241,766.928406 262.618896,745.816040 249.369644,704.468994 
	C248.966614,703.211182 246.653824,701.768738 245.220963,701.757690 
	C225.237717,701.602722 205.252640,701.675903 185.268066,701.721375 
	C184.013824,701.724182 182.760101,701.957581 181.290649,702.105408 
	C181.570877,704.941772 181.722427,707.412292 182.081085,709.852295 
	C182.467590,712.481689 182.938034,715.109070 183.560349,717.691895 
	C193.571579,759.241577 219.577301,787.330322 257.702637,804.841492 
	C285.967804,817.823914 315.772675,819.811646 346.158539,815.319031 
	C363.054810,812.820923 379.167694,807.707153 394.613434,798.733643 
	C411.524353,788.806458 426.274017,776.483521 437.938538,759.768250 
	C442.325256,751.577454 446.712006,743.386719 451.633026,734.663757 
	C457.159363,719.425476 461.184692,703.922424 461.149231,687.521484 
	C461.043030,638.437195 461.093109,589.352661 461.082245,540.268188 
	C461.081818,538.342773 461.082214,536.417419 461.082214,534.315918 
	C438.329987,534.315918 416.269409,534.315918 394.084564,534.315918 
	C394.084564,536.072266 394.084564,537.546265 393.922638,539.941528 
	C393.906738,543.434814 393.892426,546.928040 393.874664,550.421326 
	C393.629852,598.610535 393.384583,646.799744 392.951202,695.758667 
	C391.975464,699.505615 390.999756,703.252625 389.782440,707.659729 
	C389.195404,709.109558 388.608368,710.559387 387.572479,712.518799 
	C384.734436,717.015564 381.896393,721.512268 378.712372,726.162964 
	C378.712372,726.162964 378.588501,726.520813 378.592712,726.546082 
M804.204041,617.139954 
	C802.090576,621.405212 799.977051,625.670471 797.337097,630.364319 
	C780.109131,662.318359 763.320923,694.522217 745.395996,726.080383 
	C739.718567,736.075806 737.800903,743.802490 747.657898,751.508728 
	C748.037537,751.805542 748.255920,752.304443 748.563416,752.698242 
	C759.822693,767.118225 771.083557,781.536926 782.760010,796.488098 
	C785.018005,792.391968 787.045898,788.796082 788.997681,785.159241 
	C801.512024,761.841125 814.009705,738.514038 826.965149,714.698364 
	C829.019775,710.785339 831.062683,706.866028 833.131104,702.960327 
	C840.720703,688.629272 848.318726,674.302734 856.398499,659.492126 
	C872.538269,629.337830 888.677979,599.183533 904.992676,568.702332 
	C906.109863,570.480286 906.878235,571.703186 907.902466,573.523132 
	C913.618286,584.677429 919.334106,595.831787 925.145691,607.694763 
	C926.754883,610.798157 928.364075,613.901550 930.038696,617.657043 
	C930.673218,618.777466 931.307678,619.897949 932.036255,621.735352 
	C933.443298,624.569031 934.858337,627.398804 936.256226,630.236938 
	C966.339417,691.314514 996.441040,752.382996 1026.437134,813.503296 
	C1027.809204,816.299072 1029.356201,817.260681 1032.463745,817.240601 
	C1055.952759,817.088440 1079.443115,817.142151 1102.932983,817.109741 
	C1103.980713,817.108276 1105.028320,816.895325 1106.541016,816.730042 
	C1105.586914,814.726196 1104.916260,813.237305 1104.179199,811.782043 
	C1097.786255,799.159668 1091.346924,786.560608 1084.986084,773.922058 
	C1062.093628,728.436340 1039.230591,682.935669 1016.348206,637.444763 
	C1001.091248,607.113342 985.868774,576.764404 970.534485,546.472046 
	C963.170471,531.924744 955.583374,517.490417 947.999451,502.315887 
	C947.027100,500.532318 946.054688,498.748749 945.000061,496.282074 
	C944.011414,494.521088 943.022705,492.760071 941.940491,490.281769 
	C930.993530,468.609955 920.046509,446.938141 908.665527,424.407074 
	C900.847107,438.863342 893.506165,452.436859 885.679810,466.517242 
	C879.090820,478.567444 872.424438,490.576111 865.930054,502.677124 
	C854.860107,523.303833 843.898315,543.988586 832.349304,565.117920 
	C823.151367,582.347717 813.953430,599.577576 804.884827,616.964844 
	C804.884827,616.964844 804.800171,616.779480 804.204041,617.139954 
z"/>
<path fill="#1C74FB" opacity="1.000000" stroke="none" 
	d="
M948.097290,503.004974 
	C955.583374,517.490417 963.170471,531.924744 970.534485,546.472046 
	C985.868774,576.764404 1001.091248,607.113342 1016.348206,637.444763 
	C1039.230591,682.935669 1062.093628,728.436340 1084.986084,773.922058 
	C1091.346924,786.560608 1097.786255,799.159668 1104.179199,811.782043 
	C1104.916260,813.237305 1105.586914,814.726196 1106.541016,816.730042 
	C1105.028320,816.895325 1103.980713,817.108276 1102.932983,817.109741 
	C1079.443115,817.142151 1055.952759,817.088440 1032.463745,817.240601 
	C1029.356201,817.260681 1027.809204,816.299072 1026.437134,813.503296 
	C996.441040,752.382996 966.339417,691.314514 936.256226,630.236938 
	C934.858337,627.398804 933.443298,624.569031 932.385742,621.372009 
	C937.740234,621.727966 940.747131,625.766724 942.123962,632.716736 
	C942.417969,634.200867 944.067261,635.994751 945.514282,636.554138 
	C948.714539,637.791260 952.356018,634.841919 953.069153,631.443542 
	C953.546814,629.167114 954.209167,626.478638 955.758301,624.969971 
	C959.170837,621.646423 958.378906,618.054993 955.819275,615.785767 
	C951.258545,611.742554 954.242554,609.200439 956.606201,606.244263 
	C957.267578,605.417053 958.137024,604.756287 959.611267,603.352234 
	C957.351318,602.614075 955.711426,602.404175 954.467407,601.589539 
	C952.917664,600.574646 950.314331,598.695129 950.546326,597.819885 
	C952.599426,590.073853 948.216614,586.503296 942.567627,584.182678 
	C942.822144,578.878418 943.056824,573.986389 943.331970,568.252014 
	C944.409729,567.329407 947.460632,565.932983 948.355835,563.679993 
	C949.875732,559.854919 948.558533,556.089294 945.264465,553.045898 
	C943.001099,550.954834 941.299072,548.256165 939.046265,545.456421 
	C942.154724,543.710266 945.708740,543.418213 943.048706,539.505371 
	C939.704285,534.585876 940.323364,533.729919 946.090576,532.881470 
	C947.336548,532.698181 949.489563,530.660339 949.309692,530.144714 
	C948.350525,527.395325 947.362976,524.160645 945.277283,522.426575 
	C942.747009,520.322998 942.270752,518.209656 941.879578,515.258301 
	C941.063965,509.105072 939.487915,503.125549 934.363953,498.787598 
	C931.146973,496.064240 930.956360,492.908173 933.809937,489.703461 
	C934.876526,488.505646 935.990540,487.350037 937.286682,485.956024 
	C939.020569,487.797913 940.527283,489.398468 942.034058,490.999084 
	C943.022705,492.760071 944.011414,494.521088 944.780457,496.817474 
	C945.739624,499.236908 946.918457,501.120941 948.097290,503.004974 
z"/>
<path fill="#091F5B" opacity="1.000000" stroke="none" 
	d="
M393.928406,798.846252 
	C379.167694,807.707153 363.054810,812.820923 346.158539,815.319031 
	C315.772675,819.811646 285.967804,817.823914 257.702637,804.841492 
	C219.577301,787.330322 193.571579,759.241577 183.560349,717.691895 
	C182.938034,715.109070 182.467590,712.481689 182.081085,709.852295 
	C181.722427,707.412292 181.570877,704.941772 181.290649,702.105408 
	C182.760101,701.957581 184.013824,701.724182 185.268066,701.721375 
	C205.252640,701.675903 225.237717,701.602722 245.220963,701.757690 
	C246.653824,701.768738 248.966614,703.211182 249.369644,704.468994 
	C262.618896,745.816040 315.284241,766.928406 357.525665,743.220825 
	C365.036316,739.005493 371.169464,732.335815 378.344910,727.036499 
	C378.576569,727.895081 378.604706,728.767639 378.195251,729.098206 
	C375.109741,731.589233 374.626312,733.979370 377.013336,737.558289 
	C378.178833,739.305725 377.843262,742.364075 377.508270,744.733093 
	C376.940735,748.746155 375.775085,752.605835 380.465454,755.176697 
	C381.320251,755.645203 381.476562,757.430908 381.904907,758.626648 
	C383.343231,762.641785 384.272644,766.931641 386.296967,770.622681 
	C389.336578,776.164978 393.137665,781.289673 396.614960,786.591919 
	C395.948639,786.557861 395.282318,786.523743 394.615997,786.489685 
	C393.085144,788.396851 390.930237,790.087158 390.174042,792.263489 
	C389.117584,795.303955 391.003540,797.589844 393.928406,798.846252 
z"/>
<path fill="#155DD6" opacity="1.000000" stroke="none" 
	d="
M826.512817,715.189819 
	C814.009705,738.514038 801.512024,761.841125 788.997681,785.159241 
	C787.045898,788.796082 785.018005,792.391968 782.760010,796.488098 
	C771.083557,781.536926 759.822693,767.118225 748.563416,752.698242 
	C748.255920,752.304443 748.037537,751.805542 747.657898,751.508728 
	C737.800903,743.802490 739.718567,736.075806 745.395996,726.080383 
	C763.320923,694.522217 780.109131,662.318359 797.939087,630.296204 
	C800.357788,630.982910 802.129150,631.900146 804.010071,632.424561 
	C804.960876,632.689758 806.484680,632.610352 807.063354,632.017395 
	C807.638123,631.428345 807.845093,629.466919 807.365723,629.023315 
	C803.545471,625.488403 804.900208,621.002502 804.800171,616.779480 
	C804.800171,616.779480 804.884827,616.964844 805.185608,616.916626 
	C806.736816,616.858398 808.467896,616.309875 809.158813,616.926636 
	C813.348511,620.666443 817.306763,624.666077 821.328552,628.593018 
	C822.276123,629.518372 823.062500,630.642090 824.108276,631.427979 
	C830.013611,635.865845 830.818542,643.800049 825.466003,648.997559 
	C819.840454,654.460266 823.100464,660.911804 823.291016,666.906982 
	C823.333923,668.258911 826.713867,669.492249 828.539551,670.805420 
	C829.472412,671.476440 830.590027,672.039185 831.240845,672.930664 
	C836.824402,680.578735 836.030273,683.308411 827.093140,685.910583 
	C823.756042,686.882324 823.553223,688.463562 825.027100,690.952942 
	C825.692444,692.076721 826.545166,693.177246 827.550415,693.997009 
	C832.190369,697.781128 832.774231,700.062744 826.284302,704.800659 
	C821.753052,708.108765 821.719788,711.263367 826.512817,715.189819 
z"/>
<path fill="#1768E9" opacity="1.000000" stroke="none" 
	d="
M832.890991,564.648926 
	C843.898315,543.988586 854.860107,523.303833 865.930054,502.677124 
	C872.424438,490.576111 879.090820,478.567444 886.256958,466.305420 
	C890.183167,468.679779 893.250610,471.823669 896.959778,473.696838 
	C900.740234,475.606079 900.658264,477.329773 898.405396,480.116150 
	C897.575073,481.143066 896.846436,482.256195 896.117554,483.360413 
	C893.048157,488.010376 893.622559,490.779602 897.807434,494.500763 
	C899.134521,495.680847 900.727356,497.908966 900.450562,499.312897 
	C899.242981,505.438049 903.086121,510.231567 904.060913,515.723816 
	C904.308899,517.121216 904.304749,518.617920 904.115662,520.028687 
	C903.427917,525.162537 904.560608,529.763550 907.043457,534.342590 
	C908.858032,537.689026 910.062561,541.487366 910.851562,545.229248 
	C911.451599,548.075134 910.970703,551.148865 910.970703,553.914429 
	C912.789429,554.528015 914.205017,555.005554 915.620605,555.483154 
	C915.026550,556.897217 914.474915,558.330994 913.830688,559.721741 
	C911.787903,564.131775 909.710571,568.525818 907.646606,572.926025 
	C906.878235,571.703186 906.109863,570.480286 904.992676,568.702332 
	C888.677979,599.183533 872.538269,629.337830 855.784912,659.653870 
	C855.390564,656.794617 855.288635,653.704834 855.916443,650.771301 
	C856.584412,647.650513 857.901428,644.662170 859.013245,641.644836 
	C860.059814,638.804504 861.199768,635.998474 862.315369,633.183899 
	C862.895203,631.721008 863.511047,630.272461 864.485352,627.907715 
	C861.666504,628.775208 860.146423,629.242981 858.642944,629.705627 
	C855.598755,625.780396 856.922424,621.674561 859.149170,618.950867 
	C861.249573,616.381653 860.879822,614.516785 859.892883,612.284424 
	C858.895935,610.029480 857.745056,607.736389 856.183044,605.857849 
	C851.733459,600.506409 850.787292,593.872375 850.555115,587.568298 
	C850.175415,577.256592 847.464355,572.654053 837.274353,569.628296 
	C834.687317,568.860107 832.551636,567.897827 832.890991,564.648926 
z"/>
<path fill="#1661DC" opacity="1.000000" stroke="none" 
	d="
M694.467163,446.252380 
	C700.113586,450.929932 705.801514,455.558502 711.392029,460.301910 
	C715.228210,463.556793 719.323242,466.623016 722.630615,470.367157 
	C766.998596,520.594727 761.390930,598.751709 710.417542,642.160583 
	C709.912231,642.590881 709.366272,642.973511 708.487305,643.077271 
	C708.433228,641.149109 708.473450,639.418274 709.079041,637.915222 
	C710.692444,633.911072 711.592896,628.934814 714.531616,626.308899 
	C719.027405,622.291687 719.868469,621.446716 715.988831,616.471619 
	C714.290405,614.293701 711.629883,611.916138 711.572327,609.575928 
	C711.344421,600.303589 704.336609,591.195007 710.740845,581.655212 
	C711.312256,580.804016 710.165100,578.520020 709.413025,577.117493 
	C707.846863,574.196655 705.054199,571.588806 704.518921,568.544067 
	C703.791016,564.403381 703.925781,559.740295 705.132019,555.735291 
	C706.324890,551.774597 705.575867,544.829956 702.073059,542.749268 
	C701.423767,542.363525 700.477722,542.125366 699.756592,542.266968 
	C692.921326,543.609741 690.937134,542.396667 689.240662,535.051880 
	C691.175964,535.321289 692.923889,535.320618 694.505310,535.833374 
	C698.288696,537.060181 701.295349,535.182007 700.503479,531.360168 
	C699.610962,527.052429 701.338074,521.975159 696.924744,518.484497 
	C696.132874,517.858215 696.378540,515.724976 696.405029,514.292358 
	C696.532410,507.412384 696.845459,500.534973 696.907410,493.654938 
	C696.973389,486.333771 696.957947,479.068146 700.959839,472.477478 
	C703.554810,468.204041 702.083191,465.008636 697.801453,462.651154 
	C695.594177,461.435852 692.954407,458.917358 692.698120,456.731140 
	C692.302124,453.353790 693.782593,449.756439 694.467163,446.252380 
z"/>
<path fill="#0C307B" opacity="1.000000" stroke="none" 
	d="
M394.084564,539.020264 
	C394.084564,537.546265 394.084564,536.072266 394.084564,534.315918 
	C416.269409,534.315918 438.329987,534.315918 461.082214,534.315918 
	C461.082214,536.417419 461.081818,538.342773 461.082245,540.268188 
	C461.093109,589.352661 461.043030,638.437195 461.149231,687.521484 
	C461.184692,703.922424 457.159363,719.425476 451.183044,734.697510 
	C449.153625,733.646057 446.842987,732.904968 446.138214,731.407898 
	C444.354614,727.619141 443.719971,723.276001 441.846039,719.546265 
	C438.604034,713.093750 434.772552,706.937500 431.171661,700.627686 
	C431.691620,699.995911 432.033905,699.386353 432.543121,698.992676 
	C435.903595,696.393982 438.039001,693.766357 435.761017,688.994751 
	C434.899719,687.190674 435.638275,683.827759 436.858093,681.970459 
	C440.931641,675.768127 439.464905,670.326904 434.759216,665.796448 
	C428.265442,659.544556 428.737671,652.937805 432.089081,645.569031 
	C432.780396,644.048950 433.140625,641.757080 432.491302,640.361694 
	C430.285034,635.620300 427.518585,631.142212 425.053101,626.517212 
	C424.233826,624.980347 423.224640,623.339722 423.092102,621.683411 
	C422.794373,617.961975 422.885803,614.197266 423.017059,610.457153 
	C423.143127,606.864258 423.216461,603.424072 419.570221,601.242554 
	C418.951874,600.872620 418.207336,599.974304 418.245697,599.365845 
	C418.495178,595.411682 418.152588,591.174927 419.490509,587.584656 
	C422.481903,579.557678 420.142487,573.424744 414.413239,567.887329 
	C413.154938,566.671204 412.054596,565.291626 410.881561,563.987305 
	C411.421631,563.935974 411.961700,563.884644 412.501770,563.833313 
	C413.331390,560.091064 414.585083,556.370300 414.775970,552.595764 
	C414.849426,551.143311 412.765472,548.656250 411.214233,548.211731 
	C405.340790,546.528625 403.197357,544.044067 403.169983,536.179382 
	C400.189240,537.210510 397.589539,538.109863 394.763550,539.007935 
	C394.537231,539.006653 394.084564,539.020264 394.084564,539.020264 
z"/>
<path fill="#1A70F6" opacity="1.000000" stroke="none" 
	d="
M907.774536,573.224609 
	C909.710571,568.525818 911.787903,564.131775 913.830688,559.721741 
	C914.474915,558.330994 915.026550,556.897217 915.620605,555.483154 
	C914.205017,555.005554 912.789429,554.528015 910.970703,553.914429 
	C910.970703,551.148865 911.451599,548.075134 910.851562,545.229248 
	C910.062561,541.487366 908.858032,537.689026 907.043457,534.342590 
	C904.560608,529.763550 903.427917,525.162537 904.115662,520.028687 
	C904.304749,518.617920 904.308899,517.121216 904.060913,515.723816 
	C903.086121,510.231567 899.242981,505.438049 900.450562,499.312897 
	C900.727356,497.908966 899.134521,495.680847 897.807434,494.500763 
	C893.622559,490.779602 893.048157,488.010376 896.117554,483.360413 
	C896.846436,482.256195 897.575073,481.143066 898.405396,480.116150 
	C900.658264,477.329773 900.740234,475.606079 896.959778,473.696838 
	C893.250610,471.823669 890.183167,468.679779 886.499634,466.051941 
	C893.506165,452.436859 900.847107,438.863342 908.665527,424.407074 
	C920.046509,446.938141 930.993530,468.609955 941.987305,490.640411 
	C940.527283,489.398468 939.020569,487.797913 937.286682,485.956024 
	C935.990540,487.350037 934.876526,488.505646 933.809937,489.703461 
	C930.956360,492.908173 931.146973,496.064240 934.363953,498.787598 
	C939.487915,503.125549 941.063965,509.105072 941.879578,515.258301 
	C942.270752,518.209656 942.747009,520.322998 945.277283,522.426575 
	C947.362976,524.160645 948.350525,527.395325 949.309692,530.144714 
	C949.489563,530.660339 947.336548,532.698181 946.090576,532.881470 
	C940.323364,533.729919 939.704285,534.585876 943.048706,539.505371 
	C945.708740,543.418213 942.154724,543.710266 939.046265,545.456421 
	C941.299072,548.256165 943.001099,550.954834 945.264465,553.045898 
	C948.558533,556.089294 949.875732,559.854919 948.355835,563.679993 
	C947.460632,565.932983 944.409729,567.329407 943.331970,568.252014 
	C943.056824,573.986389 942.822144,578.878418 942.567627,584.182678 
	C948.216614,586.503296 952.599426,590.073853 950.546326,597.819885 
	C950.314331,598.695129 952.917664,600.574646 954.467407,601.589539 
	C955.711426,602.404175 957.351318,602.614075 959.611267,603.352234 
	C958.137024,604.756287 957.267578,605.417053 956.606201,606.244263 
	C954.242554,609.200439 951.258545,611.742554 955.819275,615.785767 
	C958.378906,618.054993 959.170837,621.646423 955.758301,624.969971 
	C954.209167,626.478638 953.546814,629.167114 953.069153,631.443542 
	C952.356018,634.841919 948.714539,637.791260 945.514282,636.554138 
	C944.067261,635.994751 942.417969,634.200867 942.123962,632.716736 
	C940.747131,625.766724 937.740234,621.727966 932.338745,621.013550 
	C931.307678,619.897949 930.673218,618.777466 930.364868,617.266479 
	C932.821533,612.597290 929.958008,607.577148 925.049927,606.986084 
	C919.334106,595.831787 913.618286,584.677429 907.774536,573.224609 
z"/>
<path fill="#0B2B73" opacity="1.000000" stroke="none" 
	d="
M394.989838,539.009155 
	C397.589539,538.109863 400.189240,537.210510 403.169983,536.179382 
	C403.197357,544.044067 405.340790,546.528625 411.214233,548.211731 
	C412.765472,548.656250 414.849426,551.143311 414.775970,552.595764 
	C414.585083,556.370300 413.331390,560.091064 412.501770,563.833313 
	C411.961700,563.884644 411.421631,563.935974 410.881561,563.987305 
	C412.054596,565.291626 413.154938,566.671204 414.413239,567.887329 
	C420.142487,573.424744 422.481903,579.557678 419.490509,587.584656 
	C418.152588,591.174927 418.495178,595.411682 418.245697,599.365845 
	C418.207336,599.974304 418.951874,600.872620 419.570221,601.242554 
	C423.216461,603.424072 423.143127,606.864258 423.017059,610.457153 
	C422.885803,614.197266 422.794373,617.961975 423.092102,621.683411 
	C423.224640,623.339722 424.233826,624.980347 425.053101,626.517212 
	C427.518585,631.142212 430.285034,635.620300 432.491302,640.361694 
	C433.140625,641.757080 432.780396,644.048950 432.089081,645.569031 
	C428.737671,652.937805 428.265442,659.544556 434.759216,665.796448 
	C439.464905,670.326904 440.931641,675.768127 436.858093,681.970459 
	C435.638275,683.827759 434.899719,687.190674 435.761017,688.994751 
	C438.039001,693.766357 435.903595,696.393982 432.543121,698.992676 
	C432.033905,699.386353 431.691620,699.995911 431.171661,700.627686 
	C434.772552,706.937500 438.604034,713.093750 441.846039,719.546265 
	C443.719971,723.276001 444.354614,727.619141 446.138214,731.407898 
	C446.842987,732.904968 449.153625,733.646057 450.915894,734.963623 
	C446.712006,743.386719 442.325256,751.577454 437.288147,759.896362 
	C433.635895,757.801208 429.876343,756.128296 427.782257,753.245544 
	C422.639587,746.166199 418.057861,738.647461 413.710327,731.042603 
	C412.470062,728.872986 409.832275,726.213623 412.694366,722.993164 
	C413.177979,722.449036 412.069153,720.360046 411.526459,719.055481 
	C409.011841,713.010437 406.437378,706.990295 403.884369,700.961243 
	C404.403229,701.077576 404.922058,701.193970 405.440918,701.310303 
	C406.624146,698.730103 408.518066,696.231628 408.826538,693.550781 
	C409.307281,689.373230 405.208221,689.831360 402.659912,688.573669 
	C401.073608,687.790710 400.245972,685.545959 398.958344,684.060913 
	C397.722931,682.636169 396.333435,681.344971 395.008423,679.526978 
	C395.000092,632.375610 394.994965,585.692383 394.989838,539.009155 
z"/>
<path fill="#155DD6" opacity="1.000000" stroke="none" 
	d="
M694.452820,446.271362 
	C693.782593,449.756439 692.302124,453.353790 692.698120,456.731140 
	C692.954407,458.917358 695.594177,461.435852 697.801453,462.651154 
	C702.083191,465.008636 703.554810,468.204041 700.959839,472.477478 
	C696.957947,479.068146 696.973389,486.333771 696.907410,493.654938 
	C696.845459,500.534973 696.532410,507.412384 696.405029,514.292358 
	C696.378540,515.724976 696.132874,517.858215 696.924744,518.484497 
	C701.338074,521.975159 699.610962,527.052429 700.503479,531.360168 
	C701.295349,535.182007 698.288696,537.060181 694.505310,535.833374 
	C692.923889,535.320618 691.175964,535.321289 689.240662,535.051880 
	C690.937134,542.396667 692.921326,543.609741 699.756592,542.266968 
	C700.477722,542.125366 701.423767,542.363525 702.073059,542.749268 
	C705.575867,544.829956 706.324890,551.774597 705.132019,555.735291 
	C703.925781,559.740295 703.791016,564.403381 704.518921,568.544067 
	C705.054199,571.588806 707.846863,574.196655 709.413025,577.117493 
	C710.165100,578.520020 711.312256,580.804016 710.740845,581.655212 
	C704.336609,591.195007 711.344421,600.303589 711.572327,609.575928 
	C711.629883,611.916138 714.290405,614.293701 715.988831,616.471619 
	C719.868469,621.446716 719.027405,622.291687 714.531616,626.308899 
	C711.592896,628.934814 710.692444,633.911072 709.079041,637.915222 
	C708.473450,639.418274 708.433228,641.149109 708.155212,643.211182 
	C705.041870,646.130615 701.908630,648.615051 698.410217,650.782288 
	C697.716492,649.222412 697.776001,647.290771 696.995178,646.850952 
	C692.572510,644.359680 691.142761,640.438538 690.696716,635.754150 
	C690.597229,634.709656 689.768616,633.635925 689.047058,632.765137 
	C683.885254,626.536072 679.617126,619.934265 680.014038,611.386353 
	C680.162109,608.197815 678.685303,607.383118 675.648254,606.826965 
	C672.425232,606.236816 669.379639,604.400269 666.405090,602.827271 
	C664.395203,601.764343 662.642334,600.215576 660.774475,598.884094 
	C671.478027,589.399231 679.762573,578.254395 682.932556,564.095520 
	C688.789062,537.936401 679.580261,517.184326 659.297852,500.044128 
	C664.861206,495.053772 670.032288,490.528900 666.119080,482.304749 
	C665.838318,481.714722 666.503174,480.731628 666.544067,479.921967 
	C666.730103,476.240143 667.866821,472.221741 666.790466,468.937653 
	C664.237854,461.149261 663.152649,453.306061 662.845093,445.195282 
	C662.782043,443.532501 661.122986,441.370972 659.590942,440.425018 
	C654.390503,437.213837 653.888977,436.255188 656.013916,429.989075 
	C668.800598,432.518616 680.428711,437.921600 691.886597,444.992615 
	C692.893738,445.838959 693.656311,446.046478 694.418823,446.254028 
	C694.418823,446.253998 694.438477,446.290314 694.452820,446.271362 
z"/>
<path fill="#124DB7" opacity="1.000000" stroke="none" 
	d="
M643.995667,672.853882 
	C644.199890,674.025391 644.030334,675.480591 644.669189,676.322083 
	C648.681641,681.606934 652.874084,686.755249 656.955078,692.612732 
	C655.681763,695.041992 654.270508,696.710876 653.307678,698.607361 
	C652.697205,699.809753 652.052612,702.076294 652.621765,702.626953 
	C657.686096,707.526733 658.341064,714.059509 659.575928,720.356384 
	C660.113098,723.095337 659.611023,726.121826 660.517761,728.686523 
	C662.201111,733.448181 664.348206,737.872559 659.587830,742.196594 
	C658.846313,742.870056 658.888489,744.752014 659.052185,746.012329 
	C659.578369,750.063782 660.269348,754.097107 661.009155,758.116821 
	C662.613647,766.833984 664.653442,775.492798 665.747437,784.271179 
	C666.165649,787.626770 665.113403,791.547974 663.606140,794.667847 
	C661.566650,798.889465 658.443665,802.587524 655.785461,806.510193 
	C646.517700,794.747986 637.250000,782.985840 628.044250,770.574341 
	C634.255798,766.541199 635.134399,762.456726 632.000610,756.159607 
	C630.974060,754.096802 631.626160,751.113098 631.798828,748.570129 
	C631.907898,746.964600 633.219055,745.212524 632.843384,743.840393 
	C630.804504,736.394104 628.397766,729.048828 626.138916,721.662231 
	C624.877197,717.536438 623.116211,713.464600 622.596436,709.243286 
	C622.212830,706.127991 623.436157,702.803833 624.009766,699.584595 
	C624.644165,696.024353 624.760681,692.220093 626.165100,688.983032 
	C628.483337,683.639771 626.737549,679.664917 623.944275,675.194580 
	C622.184326,672.377991 621.268616,668.679810 621.071533,665.312805 
	C620.629883,657.766235 622.005859,649.967590 615.661987,643.840759 
	C614.533264,642.750610 613.935974,640.438049 614.104797,638.793823 
	C614.800293,632.020447 613.111328,626.045532 609.296692,620.477905 
	C608.201843,618.879944 607.747803,616.843018 606.999878,615.007324 
	C611.006653,614.931519 615.013428,614.855774 619.853516,614.893311 
	C622.128601,614.474670 623.570435,613.942627 625.012207,613.410522 
	C625.759583,613.273926 626.507019,613.137390 627.896729,613.303223 
	C630.010864,614.350769 631.723816,614.832214 632.895874,615.904724 
	C634.526001,617.396362 635.567627,619.527893 637.187927,621.034058 
	C640.385498,624.006592 642.758545,626.988159 641.321106,631.844238 
	C640.809082,633.573853 641.118225,635.950500 641.933838,637.594543 
	C644.551147,642.870300 647.603333,647.929016 650.432983,653.101501 
	C651.062927,654.253113 651.310364,655.627563 652.005859,656.727356 
	C654.603882,660.835754 657.314880,664.872742 659.983521,668.936523 
	C659.589294,668.981506 659.195007,669.026489 658.093384,669.055359 
	C656.227234,668.406250 655.083740,667.743286 653.906006,667.147888 
	C652.440674,666.407104 650.957764,665.144104 649.464050,665.116882 
	C644.141724,665.019958 643.645935,668.724121 643.995667,672.853882 
z"/>
<path fill="#0F3E99" opacity="1.000000" stroke="none" 
	d="
M535.003601,486.107910 
	C533.921936,486.172180 532.840332,486.236450 531.088501,485.875610 
	C529.450928,485.307220 528.483582,485.039825 527.516052,485.039032 
	C509.329712,485.023834 491.143402,485.040161 472.542114,485.044617 
	C470.740997,485.034821 469.354858,485.030304 467.972046,484.659698 
	C467.262817,483.277222 466.563934,482.250885 465.835266,481.246185 
	C463.364777,477.839874 459.986237,474.997284 461.491913,469.836487 
	C465.095947,457.483154 462.033539,446.031677 455.705566,435.330780 
	C454.578766,433.425293 451.965240,432.436646 450.155670,430.887421 
	C448.032990,429.070190 446.038696,427.102997 443.988708,425.200867 
	C469.681183,425.152008 495.373627,425.103119 521.521362,425.503540 
	C521.320984,431.658020 519.401001,437.438568 525.245728,442.065765 
	C527.448914,443.810028 528.261414,446.553925 527.350769,450.093018 
	C526.112366,454.905762 526.701416,459.699127 530.963196,463.745239 
	C533.603821,466.252228 537.526184,469.786469 535.269287,473.887543 
	C532.842529,478.297363 533.645813,482.013153 535.003601,486.107910 
z"/>
<path fill="#1453C0" opacity="1.000000" stroke="none" 
	d="
M655.894653,806.814575 
	C658.443665,802.587524 661.566650,798.889465 663.606140,794.667847 
	C665.113403,791.547974 666.165649,787.626770 665.747437,784.271179 
	C664.653442,775.492798 662.613647,766.833984 661.009155,758.116821 
	C660.269348,754.097107 659.578369,750.063782 659.052185,746.012329 
	C658.888489,744.752014 658.846313,742.870056 659.587830,742.196594 
	C664.348206,737.872559 662.201111,733.448181 660.517761,728.686523 
	C659.611023,726.121826 660.113098,723.095337 659.575928,720.356384 
	C658.341064,714.059509 657.686096,707.526733 652.621765,702.626953 
	C652.052612,702.076294 652.697205,699.809753 653.307678,698.607361 
	C654.270508,696.710876 655.681763,695.041992 657.046753,692.929199 
	C670.449097,709.064697 683.707886,725.547852 696.926453,742.685486 
	C695.917358,745.022705 694.948425,746.705444 694.024414,748.310181 
	C695.342224,750.177124 696.360840,752.043823 697.792175,753.506531 
	C698.837524,754.574829 700.346985,755.491333 701.791931,755.792725 
	C703.779785,756.207336 705.902100,755.977173 707.966797,756.023315 
	C707.966797,756.023315 708.002441,756.002808 707.992554,756.419189 
	C706.825012,758.968628 706.198669,761.889404 704.414124,763.093262 
	C698.018250,767.407593 697.356873,770.383972 702.664551,776.080811 
	C704.094971,777.616089 706.015198,778.684204 707.603027,780.088318 
	C708.418396,780.809509 709.751343,782.031494 709.566406,782.630981 
	C707.504028,789.315674 706.512268,796.895569 702.559021,802.266968 
	C698.885254,807.258728 698.958679,811.778625 699.012146,816.951416 
	C688.240845,817.012207 677.465820,817.231750 666.701660,816.983582 
	C664.822571,816.940308 662.705811,815.217773 661.204285,813.752686 
	C659.210876,811.807800 657.714050,809.354065 655.894653,806.814575 
z"/>
<path fill="#1148AE" opacity="1.000000" stroke="none" 
	d="
M606.834595,614.917603 
	C607.747803,616.843018 608.201843,618.879944 609.296692,620.477905 
	C613.111328,626.045532 614.800293,632.020447 614.104797,638.793823 
	C613.935974,640.438049 614.533264,642.750610 615.661987,643.840759 
	C622.005859,649.967590 620.629883,657.766235 621.071533,665.312805 
	C621.268616,668.679810 622.184326,672.377991 623.944275,675.194580 
	C626.737549,679.664917 628.483337,683.639771 626.165100,688.983032 
	C624.760681,692.220093 624.644165,696.024353 624.009766,699.584595 
	C623.436157,702.803833 622.212830,706.127991 622.596436,709.243286 
	C623.116211,713.464600 624.877197,717.536438 626.138916,721.662231 
	C628.397766,729.048828 630.804504,736.394104 632.843384,743.840393 
	C633.219055,745.212524 631.907898,746.964600 631.798828,748.570129 
	C631.626160,751.113098 630.974060,754.096802 632.000610,756.159607 
	C635.134399,762.456726 634.255798,766.541199 627.923706,770.276123 
	C619.504089,760.147461 611.267090,749.667725 603.003479,738.484924 
	C607.428833,731.984802 607.399475,731.743408 601.681885,727.118469 
	C597.865723,724.031616 597.380249,719.859680 599.745361,715.892822 
	C600.346924,714.883850 599.710510,712.272339 598.738586,711.347351 
	C595.486938,708.252747 593.934875,703.646851 595.649292,700.647766 
	C600.137268,692.796692 597.532043,685.668701 594.598267,678.860474 
	C591.739258,672.225769 590.267334,665.900085 591.766968,658.790100 
	C592.263428,656.436829 591.917725,653.829590 591.576477,651.391724 
	C590.849792,646.200806 589.588623,641.071472 589.100525,635.864990 
	C588.777161,632.414917 587.388550,630.092651 585.445435,627.223999 
	C582.767395,623.270325 579.406128,621.194397 575.670532,618.905396 
	C574.291931,618.060730 573.864197,615.664307 573.002808,613.975586 
	C576.703613,613.914246 580.404358,613.852966 584.701477,614.121704 
	C585.623657,614.599915 585.949585,614.748108 586.275452,614.896301 
	C592.118042,614.858215 597.960632,614.820129 604.650146,614.853638 
	C605.763794,614.910706 606.030518,614.896301 606.297180,614.881897 
	C606.297180,614.881897 606.669373,614.827881 606.834595,614.917603 
z"/>
<path fill="#1661DC" opacity="1.000000" stroke="none" 
	d="
M832.620117,564.883423 
	C832.551636,567.897827 834.687317,568.860107 837.274353,569.628296 
	C847.464355,572.654053 850.175415,577.256592 850.555115,587.568298 
	C850.787292,593.872375 851.733459,600.506409 856.183044,605.857849 
	C857.745056,607.736389 858.895935,610.029480 859.892883,612.284424 
	C860.879822,614.516785 861.249573,616.381653 859.149170,618.950867 
	C856.922424,621.674561 855.598755,625.780396 858.642944,629.705627 
	C860.146423,629.242981 861.666504,628.775208 864.485352,627.907715 
	C863.511047,630.272461 862.895203,631.721008 862.315369,633.183899 
	C861.199768,635.998474 860.059814,638.804504 859.013245,641.644836 
	C857.901428,644.662170 856.584412,647.650513 855.916443,650.771301 
	C855.288635,653.704834 855.390564,656.794617 855.542480,659.895081 
	C848.318726,674.302734 840.720703,688.629272 833.131104,702.960327 
	C831.062683,706.866028 829.019775,710.785339 826.739014,714.944092 
	C821.719788,711.263367 821.753052,708.108765 826.284302,704.800659 
	C832.774231,700.062744 832.190369,697.781128 827.550415,693.997009 
	C826.545166,693.177246 825.692444,692.076721 825.027100,690.952942 
	C823.553223,688.463562 823.756042,686.882324 827.093140,685.910583 
	C836.030273,683.308411 836.824402,680.578735 831.240845,672.930664 
	C830.590027,672.039185 829.472412,671.476440 828.539551,670.805420 
	C826.713867,669.492249 823.333923,668.258911 823.291016,666.906982 
	C823.100464,660.911804 819.840454,654.460266 825.466003,648.997559 
	C830.818542,643.800049 830.013611,635.865845 824.108276,631.427979 
	C823.062500,630.642090 822.276123,629.518372 821.328552,628.593018 
	C817.306763,624.666077 813.348511,620.666443 809.158813,616.926636 
	C808.467896,616.309875 806.736816,616.858398 805.120972,616.837891 
	C813.953430,599.577576 823.151367,582.347717 832.620117,564.883423 
z"/>
<path fill="#0B276A" opacity="1.000000" stroke="none" 
	d="
M395.011658,679.995117 
	C396.333435,681.344971 397.722931,682.636169 398.958344,684.060913 
	C400.245972,685.545959 401.073608,687.790710 402.659912,688.573669 
	C405.208221,689.831360 409.307281,689.373230 408.826538,693.550781 
	C408.518066,696.231628 406.624146,698.730103 405.440918,701.310303 
	C404.922058,701.193970 404.403229,701.077576 403.884369,700.961243 
	C406.437378,706.990295 409.011841,713.010437 411.526459,719.055481 
	C412.069153,720.360046 413.177979,722.449036 412.694366,722.993164 
	C409.832275,726.213623 412.470062,728.872986 413.710327,731.042603 
	C418.057861,738.647461 422.639587,746.166199 427.782257,753.245544 
	C429.876343,756.128296 433.635895,757.801208 437.016815,760.081787 
	C426.274017,776.483521 411.524353,788.806458 394.270935,798.789917 
	C391.003540,797.589844 389.117584,795.303955 390.174042,792.263489 
	C390.930237,790.087158 393.085144,788.396851 394.615997,786.489685 
	C395.282318,786.523743 395.948639,786.557861 396.614960,786.591919 
	C393.137665,781.289673 389.336578,776.164978 386.296967,770.622681 
	C384.272644,766.931641 383.343231,762.641785 381.904907,758.626648 
	C381.476562,757.430908 381.320251,755.645203 380.465454,755.176697 
	C375.775085,752.605835 376.940735,748.746155 377.508270,744.733093 
	C377.843262,742.364075 378.178833,739.305725 377.013336,737.558289 
	C374.626312,733.979370 375.109741,731.589233 378.195251,729.098206 
	C378.604706,728.767639 378.576569,727.895081 378.658203,726.905212 
	C378.565308,726.536865 378.592712,726.546082 378.774658,726.613464 
	C379.085388,726.670532 379.214172,726.660156 379.342926,726.649780 
	C379.248077,726.436218 379.153229,726.222595 379.058350,726.009033 
	C381.896393,721.512268 384.734436,717.015564 388.065643,712.498413 
	C389.854828,716.184753 391.856354,716.795898 394.214844,714.024780 
	C394.992432,713.111206 395.836060,710.928955 395.480896,710.604065 
	C393.892487,709.150635 391.882050,708.158325 390.024048,706.999573 
	C390.999756,703.252625 391.975464,699.505615 393.430084,695.273315 
	C394.276550,689.857056 394.644104,684.926086 395.011658,679.995117 
z"/>
<path fill="#1453C0" opacity="1.000000" stroke="none" 
	d="
M660.368103,669.018311 
	C657.314880,664.872742 654.603882,660.835754 652.005859,656.727356 
	C651.310364,655.627563 651.062927,654.253113 650.432983,653.101501 
	C647.603333,647.929016 644.551147,642.870300 641.933838,637.594543 
	C641.118225,635.950500 640.809082,633.573853 641.321106,631.844238 
	C642.758545,626.988159 640.385498,624.006592 637.187927,621.034058 
	C635.567627,619.527893 634.526001,617.396362 632.895874,615.904724 
	C631.723816,614.832214 630.010864,614.350769 628.276733,613.347046 
	C638.325989,611.179565 647.872925,607.319275 656.736145,601.753174 
	C657.948914,600.991577 659.001587,599.974915 660.451416,598.980225 
	C662.642334,600.215576 664.395203,601.764343 666.405090,602.827271 
	C669.379639,604.400269 672.425232,606.236816 675.648254,606.826965 
	C678.685303,607.383118 680.162109,608.197815 680.014038,611.386353 
	C679.617126,619.934265 683.885254,626.536072 689.047058,632.765137 
	C689.768616,633.635925 690.597229,634.709656 690.696716,635.754150 
	C691.142761,640.438538 692.572510,644.359680 696.995178,646.850952 
	C697.776001,647.290771 697.716492,649.222412 698.067688,650.867859 
	C686.781494,659.594971 674.173096,665.197754 660.368103,669.018311 
z"/>
<path fill="#1044A5" opacity="1.000000" stroke="none" 
	d="
M572.542480,613.887756 
	C573.864197,615.664307 574.291931,618.060730 575.670532,618.905396 
	C579.406128,621.194397 582.767395,623.270325 585.445435,627.223999 
	C587.388550,630.092651 588.777161,632.414917 589.100525,635.864990 
	C589.588623,641.071472 590.849792,646.200806 591.576477,651.391724 
	C591.917725,653.829590 592.263428,656.436829 591.766968,658.790100 
	C590.267334,665.900085 591.739258,672.225769 594.598267,678.860474 
	C597.532043,685.668701 600.137268,692.796692 595.649292,700.647766 
	C593.934875,703.646851 595.486938,708.252747 598.738586,711.347351 
	C599.710510,712.272339 600.346924,714.883850 599.745361,715.892822 
	C597.380249,719.859680 597.865723,724.031616 601.681885,727.118469 
	C607.399475,731.743408 607.428833,731.984802 602.910278,738.182739 
	C598.897278,733.642944 594.950867,728.702271 591.164917,723.253296 
	C587.220215,717.164917 583.114990,711.584900 579.005310,705.581848 
	C579.640930,700.738647 576.875916,700.733765 573.792358,701.142029 
	C573.792358,701.142029 573.900146,701.097229 573.885620,700.801880 
	C573.396851,700.161255 572.922607,699.815918 572.448364,699.470581 
	C572.448364,699.470581 572.486938,699.240906 572.544312,699.044983 
	C572.260742,698.677246 571.919861,698.505432 571.578918,698.333557 
	C571.578918,698.333557 571.851379,698.225098 571.814331,697.948364 
	C571.131592,697.146667 570.485962,696.621643 569.840271,696.096619 
	C569.840271,696.096619 569.937866,696.066833 569.913330,695.772461 
	C569.432373,695.099670 568.975830,694.721313 568.519348,694.342957 
	C568.519348,694.342957 568.678955,694.223206 568.649536,693.997070 
	C568.262085,693.556274 567.904053,693.341675 567.546021,693.127075 
	C567.241699,693.095276 567.037170,692.935608 566.916504,692.114014 
	C566.314697,691.056091 565.728699,690.532288 565.142700,690.008484 
	C565.142700,690.008484 564.861877,689.899109 564.909424,689.364441 
	C567.159180,685.237427 569.209778,681.539612 571.611572,678.085999 
	C573.543945,675.307434 572.347107,674.055359 570.638489,671.463806 
	C567.618958,666.883789 565.422913,661.388184 564.354797,655.984680 
	C562.879028,648.518921 562.925659,640.764709 562.023804,633.169189 
	C561.248108,626.636780 559.791992,620.288635 554.154724,615.879089 
	C553.734131,615.550049 553.767273,614.640991 553.589478,614.001526 
	C559.753723,613.934326 565.917969,613.867126 572.542480,613.887756 
z"/>
<path fill="#1453C0" opacity="1.000000" stroke="none" 
	d="
M655.705078,429.776245 
	C653.888977,436.255188 654.390503,437.213837 659.590942,440.425018 
	C661.122986,441.370972 662.782043,443.532501 662.845093,445.195282 
	C663.152649,453.306061 664.237854,461.149261 666.790466,468.937653 
	C667.866821,472.221741 666.730103,476.240143 666.544067,479.921967 
	C666.503174,480.731628 665.838318,481.714722 666.119080,482.304749 
	C670.032288,490.528900 664.861206,495.053772 659.133667,499.755707 
	C651.457947,496.403320 643.930237,492.736420 636.083984,488.574524 
	C637.217285,481.890289 632.323120,479.104645 629.005188,475.472961 
	C627.454895,473.776062 625.551331,472.274017 624.465454,470.318512 
	C623.481567,468.546631 622.608215,466.076477 623.074158,464.272797 
	C623.966797,460.817535 626.231079,457.722015 627.170532,454.271454 
	C627.751099,452.139221 627.853271,448.724091 626.589966,447.442383 
	C621.184143,441.957855 619.830566,433.341675 612.387024,429.448975 
	C611.184326,428.819977 610.772156,426.679230 609.994568,425.237274 
	C625.343445,424.422913 640.492859,425.701965 655.705078,429.776245 
z"/>
<path fill="#0B276A" opacity="1.000000" stroke="none" 
	d="
M344.002808,425.187378 
	C355.690613,425.142334 367.378448,425.097290 379.530060,425.525024 
	C380.180176,427.292877 379.971497,428.841827 380.615082,429.842926 
	C385.888184,438.045532 381.070038,447.448090 383.827271,455.923431 
	C383.948303,456.295441 383.563812,456.865417 383.345459,457.309021 
	C381.418823,461.222870 382.939087,464.441956 385.706299,467.082489 
	C387.239929,468.545990 389.370331,469.384064 391.231781,470.504028 
	C390.256287,470.978760 389.280823,471.453491 388.305359,471.928223 
	C387.870239,476.284271 387.435120,480.640289 386.531342,484.999084 
	C373.614258,484.999451 361.163727,484.867859 348.718750,485.073608 
	C344.997406,485.135132 343.890778,484.010223 343.926392,480.283081 
	C344.099243,462.193085 344.001129,444.100464 344.000916,425.803436 
	C344.002869,425.598083 344.002808,425.187378 344.002808,425.187378 
z"/>
<path fill="#0C307B" opacity="1.000000" stroke="none" 
	d="
M443.525513,425.129822 
	C446.038696,427.102997 448.032990,429.070190 450.155670,430.887421 
	C451.965240,432.436646 454.578766,433.425293 455.705566,435.330780 
	C462.033539,446.031677 465.095947,457.483154 461.491913,469.836487 
	C459.986237,474.997284 463.364777,477.839874 465.835266,481.246185 
	C466.563934,482.250885 467.262817,483.277222 467.506958,484.665405 
	C457.937012,485.031372 448.834381,485.102783 439.734528,484.975220 
	C436.810150,484.934204 433.893066,484.368439 430.924713,483.687317 
	C428.677673,481.205719 424.254761,479.979370 426.316040,475.815247 
	C428.981140,470.431366 426.271576,466.777618 423.407990,462.893311 
	C419.923737,458.166992 418.080475,453.068390 419.424713,447.048431 
	C419.982483,444.550537 421.068695,440.810120 419.877716,439.530396 
	C415.868225,435.222015 416.809204,430.065094 415.994385,425.192780 
	C425.017029,425.148132 434.039642,425.103455 443.525513,425.129822 
z"/>
<path fill="#0B2B73" opacity="1.000000" stroke="none" 
	d="
M415.531799,425.115784 
	C416.809204,430.065094 415.868225,435.222015 419.877716,439.530396 
	C421.068695,440.810120 419.982483,444.550537 419.424713,447.048431 
	C418.080475,453.068390 419.923737,458.166992 423.407990,462.893311 
	C426.271576,466.777618 428.981140,470.431366 426.316040,475.815247 
	C424.254761,479.979370 428.677673,481.205719 430.499573,483.685028 
	C426.022675,484.363129 421.925903,484.916107 417.822723,484.968201 
	C407.550018,485.098572 397.274445,485.001923 387.000000,484.996338 
	C387.435120,480.640289 387.870239,476.284271 388.305359,471.928223 
	C389.280823,471.453491 390.256287,470.978760 391.231781,470.504028 
	C389.370331,469.384064 387.239929,468.545990 385.706299,467.082489 
	C382.939087,464.441956 381.418823,461.222870 383.345459,457.309021 
	C383.563812,456.865417 383.948303,456.295441 383.827271,455.923431 
	C381.070038,447.448090 385.888184,438.045532 380.615082,429.842926 
	C379.971497,428.841827 380.180176,427.292877 379.992493,425.601990 
	C391.683807,425.150391 403.376495,425.094604 415.531799,425.115784 
z"/>
<path fill="#0F3E99" opacity="1.000000" stroke="none" 
	d="
M553.233765,613.910522 
	C553.767273,614.640991 553.734131,615.550049 554.154724,615.879089 
	C559.791992,620.288635 561.248108,626.636780 562.023804,633.169189 
	C562.925659,640.764709 562.879028,648.518921 564.354797,655.984680 
	C565.422913,661.388184 567.618958,666.883789 570.638489,671.463806 
	C572.347107,674.055359 573.543945,675.307434 571.611572,678.085999 
	C569.209778,681.539612 567.159180,685.237427 564.895264,689.214417 
	C553.380005,675.130554 541.911316,660.674011 530.478088,646.189453 
	C522.241638,635.754944 514.052490,625.283264 505.050140,613.819458 
	C521.590820,613.819458 537.234375,613.819458 553.233765,613.910522 
z"/>
<path fill="#1148AE" opacity="1.000000" stroke="none" 
	d="
M601.000549,486.099701 
	C592.976257,486.172668 584.951904,486.245667 576.210449,485.900635 
	C572.995544,485.319763 570.497742,485.156921 567.993164,484.631134 
	C566.996582,483.050110 566.164551,481.646729 564.989258,480.646637 
	C560.336670,476.687622 555.014465,473.186005 558.782532,465.624756 
	C559.401428,464.382874 558.993774,462.201324 558.315308,460.820068 
	C556.137024,456.385437 554.031677,451.805359 551.089783,447.888489 
	C548.505493,444.447754 548.699707,441.265594 549.698914,437.638641 
	C550.836731,433.508789 551.899292,429.358246 552.994568,425.216705 
	C562.685547,425.161621 572.376526,425.106506 582.579956,425.477203 
	C583.623840,427.293823 583.750488,429.193665 584.753601,429.991455 
	C590.554321,434.604462 589.342651,442.190186 588.185913,446.617279 
	C586.223877,454.126587 590.716431,458.016357 592.876282,463.349548 
	C594.024536,466.184723 594.939270,469.113586 596.008728,471.981750 
	C596.922546,474.432648 597.966003,476.836243 598.842224,479.299866 
	C599.638672,481.539093 600.286987,483.830994 601.000549,486.099701 
z"/>
<path fill="#124DB7" opacity="1.000000" stroke="none" 
	d="
M601.457397,486.201294 
	C600.286987,483.830994 599.638672,481.539093 598.842224,479.299866 
	C597.966003,476.836243 596.922546,474.432648 596.008728,471.981750 
	C594.939270,469.113586 594.024536,466.184723 592.876282,463.349548 
	C590.716431,458.016357 586.223877,454.126587 588.185913,446.617279 
	C589.342651,442.190186 590.554321,434.604462 584.753601,429.991455 
	C583.750488,429.193665 583.623840,427.293823 583.042786,425.551819 
	C591.685486,425.159851 600.377808,425.119080 609.532349,425.157776 
	C610.772156,426.679230 611.184326,428.819977 612.387024,429.448975 
	C619.830566,433.341675 621.184143,441.957855 626.589966,447.442383 
	C627.853271,448.724091 627.751099,452.139221 627.170532,454.271454 
	C626.231079,457.722015 623.966797,460.817535 623.074158,464.272797 
	C622.608215,466.076477 623.481567,468.546631 624.465454,470.318512 
	C625.551331,472.274017 627.454895,473.776062 629.005188,475.472961 
	C632.323120,479.104645 637.217285,481.890289 635.788574,488.403046 
	C634.791748,488.536255 633.771790,488.345917 632.480225,487.759949 
	C631.085815,487.366577 629.962891,487.368835 628.839966,487.371124 
	C628.421692,487.305206 628.003357,487.239258 627.198120,486.674377 
	C623.198059,486.158600 619.584900,486.141785 615.971741,486.124939 
	C611.285889,486.184265 606.600037,486.243591 601.457397,486.201294 
z"/>
<path fill="#155DD6" opacity="1.000000" stroke="none" 
	d="
M699.472351,817.039429 
	C698.958679,811.778625 698.885254,807.258728 702.559021,802.266968 
	C706.512268,796.895569 707.504028,789.315674 709.566406,782.630981 
	C709.751343,782.031494 708.418396,780.809509 707.603027,780.088318 
	C706.015198,778.684204 704.094971,777.616089 702.664551,776.080811 
	C697.356873,770.383972 698.018250,767.407593 704.414124,763.093262 
	C706.198669,761.889404 706.825012,758.968628 707.979065,756.435303 
	C724.115173,776.061829 740.255005,796.088623 757.210449,817.127502 
	C737.303040,817.127502 718.617798,817.127502 699.472351,817.039429 
z"/>
<path fill="#1044A5" opacity="1.000000" stroke="none" 
	d="
M552.554626,425.139648 
	C551.899292,429.358246 550.836731,433.508789 549.698914,437.638641 
	C548.699707,441.265594 548.505493,444.447754 551.089783,447.888489 
	C554.031677,451.805359 556.137024,456.385437 558.315308,460.820068 
	C558.993774,462.201324 559.401428,464.382874 558.782532,465.624756 
	C555.014465,473.186005 560.336670,476.687622 564.989258,480.646637 
	C566.164551,481.646729 566.996582,483.050110 567.524658,484.634521 
	C564.901062,485.000885 562.731873,484.887329 560.578735,485.024536 
	C556.041443,485.313782 551.512451,485.734467 546.980103,486.101196 
	C543.288269,486.172760 539.596436,486.244324 535.454102,486.211914 
	C533.645813,482.013153 532.842529,478.297363 535.269287,473.887543 
	C537.526184,469.786469 533.603821,466.252228 530.963196,463.745239 
	C526.701416,459.699127 526.112366,454.905762 527.350769,450.093018 
	C528.261414,446.553925 527.448914,443.810028 525.245728,442.065765 
	C519.401001,437.438568 521.320984,431.658020 521.983887,425.579559 
	C529.947388,425.349365 537.903320,425.538757 545.860168,425.604187 
	C547.943359,425.621338 550.029785,425.253571 552.554626,425.139648 
z"/>
<path fill="#091F5B" opacity="1.000000" stroke="none" 
	d="
M386.531342,484.999084 
	C397.274445,485.001923 407.550018,485.098572 417.822723,484.968201 
	C421.925903,484.916107 426.022675,484.363129 430.547516,484.040466 
	C433.893066,484.368439 436.810150,484.934204 439.734528,484.975220 
	C448.834381,485.102783 457.937012,485.031372 467.503632,485.031433 
	C469.354858,485.030304 470.740997,485.034821 472.542511,485.292328 
	C472.957886,485.545319 472.945038,486.041687 472.945038,486.041687 
	C464.643188,486.135956 456.341431,486.305756 448.039520,486.311401 
	C413.305756,486.334991 378.571960,486.309326 343.335419,485.956909 
	C342.715210,485.327332 342.510620,485.135437 342.218842,485.036407 
	C342.223511,465.214630 342.228180,445.392853 342.742737,425.590057 
	C343.470428,425.800201 343.719208,425.933472 343.998993,426.008789 
	C344.001129,444.100464 344.099243,462.193085 343.926392,480.283081 
	C343.890778,484.010223 344.997406,485.135132 348.718750,485.073608 
	C361.163727,484.867859 373.614258,484.999451 386.531342,484.999084 
z"/>
<path fill="#091F5B" opacity="1.000000" stroke="none" 
	d="
M395.008423,679.526978 
	C394.644104,684.926086 394.276550,689.857056 393.524170,694.888489 
	C393.384583,646.799744 393.629852,598.610535 393.874664,550.421326 
	C393.892426,546.928040 393.906738,543.434814 394.003601,539.480896 
	C394.084564,539.020264 394.537231,539.006653 394.763550,539.007935 
	C394.994965,585.692383 395.000092,632.375610 395.008423,679.526978 
z"/>
<path fill="#155DD6" opacity="1.000000" stroke="none" 
	d="
M707.861145,755.703003 
	C705.902100,755.977173 703.779785,756.207336 701.791931,755.792725 
	C700.346985,755.491333 698.837524,754.574829 697.792175,753.506531 
	C696.360840,752.043823 695.342224,750.177124 694.024414,748.310181 
	C694.948425,746.705444 695.917358,745.022705 697.036621,742.997253 
	C700.709778,746.897217 704.232666,751.139954 707.861145,755.703003 
z"/>
<path fill="#1661DC" opacity="1.000000" stroke="none" 
	d="
M804.502075,616.959717 
	C804.900208,621.002502 803.545471,625.488403 807.365723,629.023315 
	C807.845093,629.466919 807.638123,631.428345 807.063354,632.017395 
	C806.484680,632.610352 804.960876,632.689758 804.010071,632.424561 
	C802.129150,631.900146 800.357788,630.982910 798.202271,630.081909 
	C799.977051,625.670471 802.090576,621.405212 804.502075,616.959717 
z"/>
<path fill="#1453C0" opacity="1.000000" stroke="none" 
	d="
M644.402710,672.904114 
	C643.645935,668.724121 644.141724,665.019958 649.464050,665.116882 
	C650.957764,665.144104 652.440674,666.407104 653.906006,667.147888 
	C655.083740,667.743286 656.227234,668.406250 657.795166,669.060913 
	C653.739441,670.373108 649.274597,671.663696 644.402710,672.904114 
z"/>
<path fill="#0C307B" opacity="1.000000" stroke="none" 
	d="
M473.405609,486.165924 
	C472.945038,486.041687 472.957886,485.545319 472.957458,485.297607 
	C491.143402,485.040161 509.329712,485.023834 527.516052,485.039032 
	C528.483582,485.039825 529.450928,485.307220 530.696350,485.760193 
	C511.938293,486.143311 492.902252,486.216736 473.405609,486.165924 
z"/>
<path fill="#1148AE" opacity="1.000000" stroke="none" 
	d="
M579.009766,706.004883 
	C583.114990,711.584900 587.220215,717.164917 591.051025,722.920776 
	C586.460266,717.675903 582.143799,712.255188 578.058594,706.454712 
	C578.529785,706.051575 578.769775,706.028198 579.009766,706.004883 
z"/>
<path fill="#0B2B73" opacity="1.000000" stroke="none" 
	d="
M389.903229,707.329651 
	C391.882050,708.158325 393.892487,709.150635 395.480896,710.604065 
	C395.836060,710.928955 394.992432,713.111206 394.214844,714.024780 
	C391.856354,716.795898 389.854828,716.184753 388.290070,712.243652 
	C388.608368,710.559387 389.195404,709.109558 389.903229,707.329651 
z"/>
<path fill="#1C74FB" opacity="1.000000" stroke="none" 
	d="
M925.097778,607.340454 
	C929.958008,607.577148 932.821533,612.597290 930.332153,616.940430 
	C928.364075,613.901550 926.754883,610.798157 925.097778,607.340454 
z"/>
<path fill="#0F3E99" opacity="1.000000" stroke="none" 
	d="
M547.441406,486.199249 
	C551.512451,485.734467 556.041443,485.313782 560.578735,485.024536 
	C562.731873,484.887329 564.901062,485.000885 567.531494,484.997437 
	C570.497742,485.156921 572.995544,485.319763 575.753418,485.790833 
	C566.643311,486.165161 557.273071,486.231262 547.441406,486.199249 
z"/>
<path fill="#0F3E99" opacity="1.000000" stroke="none" 
	d="
M579.005310,705.581848 
	C578.769775,706.028198 578.529785,706.051575 577.931824,706.127258 
	C576.369751,704.706299 575.165710,703.233154 573.876953,701.450989 
	C576.875916,700.733765 579.640930,700.738647 579.005310,705.581848 
z"/>
<path fill="#1148AE" opacity="1.000000" stroke="none" 
	d="
M616.385986,486.225098 
	C619.584900,486.141785 623.198059,486.158600 626.901062,486.561951 
	C623.593994,486.740723 620.197083,486.533020 616.385986,486.225098 
z"/>
<path fill="#1A70F6" opacity="1.000000" stroke="none" 
	d="
M948.048340,502.660431 
	C946.918457,501.120941 945.739624,499.236908 944.821533,497.159027 
	C946.054688,498.748749 947.027100,500.532318 948.048340,502.660431 
z"/>
<path fill="#1453C0" opacity="1.000000" stroke="none" 
	d="
M624.649048,613.337646 
	C623.570435,613.942627 622.128601,614.474670 620.303772,614.987427 
	C621.375793,614.400391 622.830872,613.832520 624.649048,613.337646 
z"/>
<path fill="#1148AE" opacity="1.000000" stroke="none" 
	d="
M629.066162,487.629272 
	C629.962891,487.368835 631.085815,487.366577 632.106079,487.649811 
	C631.099731,487.919342 630.196106,487.903381 629.066162,487.629272 
z"/>
<path fill="#1661DC" opacity="1.000000" stroke="none" 
	d="
M694.237183,446.040710 
	C693.656311,446.046478 692.893738,445.838959 692.083374,445.267334 
	C692.708801,445.211304 693.382202,445.519348 694.237183,446.040710 
z"/>
<path fill="#0F3E99" opacity="1.000000" stroke="none" 
	d="
M569.909912,696.388489 
	C570.485962,696.621643 571.131592,697.146667 571.692932,698.030640 
	C571.065613,697.819885 570.522583,697.250122 569.909912,696.388489 
z"/>
<path fill="#0F3E99" opacity="1.000000" stroke="none" 
	d="
M565.230225,690.287964 
	C565.728699,690.532288 566.314697,691.056091 566.909058,691.910278 
	C566.384155,691.682861 565.850952,691.125122 565.230225,690.287964 
z"/>
<path fill="#0F3E99" opacity="1.000000" stroke="none" 
	d="
M568.612671,694.622559 
	C568.975830,694.721313 569.432373,695.099670 569.890869,695.818237 
	C569.497314,695.739685 569.101685,695.320923 568.612671,694.622559 
z"/>
<path fill="#0F3E99" opacity="1.000000" stroke="none" 
	d="
M572.551758,699.739502 
	C572.922607,699.815918 573.396851,700.161255 573.860901,700.854736 
	C573.452209,700.804749 573.053650,700.406555 572.551758,699.739502 
z"/>
<path fill="#0C307B" opacity="1.000000" stroke="none" 
	d="
M344.000916,425.803436 
	C343.719208,425.933472 343.470428,425.800201 343.132202,425.433380 
	C343.172485,425.183502 343.333252,425.109283 343.748413,425.111206 
	C344.002808,425.187378 344.002869,425.598083 344.000916,425.803436 
z"/>
<path fill="#124DB7" opacity="1.000000" stroke="none" 
	d="
M606.170288,614.584961 
	C606.030518,614.896301 605.763794,614.910706 605.097046,614.902832 
	C605.145752,614.682983 605.594543,614.485474 606.170288,614.584961 
z"/>
<path fill="#0F3E99" opacity="1.000000" stroke="none" 
	d="
M342.133606,485.299377 
	C342.510620,485.135437 342.715210,485.327332 342.878418,485.822693 
	C342.632263,485.876282 342.340302,485.719299 342.133606,485.299377 
z"/>
<path fill="#091F5B" opacity="1.000000" stroke="none" 
	d="
M378.885376,726.085999 
	C379.153229,726.222595 379.248077,726.436218 379.342926,726.649780 
	C379.214172,726.660156 379.085388,726.670532 378.772583,726.600830 
	C378.588501,726.520813 378.712372,726.162964 378.885376,726.085999 
z"/>
<path fill="#0F3E99" opacity="1.000000" stroke="none" 
	d="
M571.657715,698.580627 
	C571.919861,698.505432 572.260742,698.677246 572.560669,699.160278 
	C572.258667,699.256897 571.997620,699.042297 571.657715,698.580627 
z"/>
<path fill="#0F3E99" opacity="1.000000" stroke="none" 
	d="
M567.660583,693.408081 
	C567.904053,693.341675 568.262085,693.556274 568.661743,694.096069 
	C568.393982,694.177246 568.084534,693.933167 567.660583,693.408081 
z"/>
<path fill="#0F3E99" opacity="1.000000" stroke="none" 
	d="
M586.174500,614.610962 
	C585.949585,614.748108 585.623657,614.599915 585.153931,614.220032 
	C585.364624,614.100769 585.719055,614.213196 586.174500,614.610962 
z"/>
</svg>