<svg viewBox="0 0 200 150" xmlns="http://www.w3.org/2000/svg">
  <defs>
    <linearGradient id="bg2" x1="0%" y1="0%" x2="100%" y2="100%">
      <stop offset="0%" style="stop-color:#6b5fd1;stop-opacity:0.12"/>
      <stop offset="100%" style="stop-color:#f0b352;stop-opacity:0.08"/>
    </linearGradient>
  </defs>
  <rect width="200" height="150" fill="url(#bg2)" rx="8"/>
  <text x="100" y="22" font-size="13" font-weight="700" text-anchor="middle" fill="#6b5fd1">Analysis Results</text>
  <rect x="8" y="32" width="58" height="40" fill="#fbf8f2" stroke="#6b5fd1" stroke-width="1.2" rx="4"/>
  <text x="37" y="45" font-size="9" font-weight="600" text-anchor="middle" fill="#6b5fd1">RISK SCORE</text>
  <text x="37" y="62" font-size="18" font-weight="700" text-anchor="middle" fill="#1f2937">6.5/10</text>
  <rect x="70" y="32" width="58" height="40" fill="#fbf8f2" stroke="#f0b352" stroke-width="1.2" rx="4"/>
  <text x="99" y="45" font-size="9" font-weight="600" text-anchor="middle" fill="#f0b352">TASKS</text>
  <text x="99" y="62" font-size="18" font-weight="700" text-anchor="middle" fill="#1f2937">6 rated</text>
  <rect x="132" y="32" width="60" height="40" fill="#fbf8f2" stroke="#117a65" stroke-width="1.2" rx="4"/>
  <text x="162" y="45" font-size="9" font-weight="600" text-anchor="middle" fill="#117a65">TOOLS</text>
  <text x="162" y="62" font-size="18" font-weight="700" text-anchor="middle" fill="#1f2937">8 found</text>
  <line x1="10" y1="80" x2="190" y2="80" stroke="#ddd" stroke-width="1" stroke-dasharray="2,2"/>
  <text x="10" y="96" font-size="10" font-weight="700" fill="#1f2937">Timeline</text>
  <circle cx="20" cy="110" r="6" fill="#c0392b"/>
  <text x="20" y="133" font-size="8" text-anchor="middle" fill="#1f2937" font-weight="600">Now</text>
  <circle cx="60" cy="110" r="6" fill="#f0b352"/>
  <text x="60" y="133" font-size="8" text-anchor="middle" fill="#1f2937" font-weight="600">1-2 yrs</text>
  <circle cx="100" cy="110" r="6" fill="#117a65"/>
  <text x="100" y="133" font-size="8" text-anchor="middle" fill="#1f2937" font-weight="600">3-5 yrs</text>
  <line x1="26" y1="110" x2="54" y2="110" stroke="#ddd" stroke-width="1"/>
  <line x1="66" y1="110" x2="94" y2="110" stroke="#ddd" stroke-width="1"/>
  <rect x="135" y="99" width="55" height="34" fill="#fbf8f2" stroke="#ddd" stroke-width="0.8" rx="3"/>
  <text x="162.5" y="111" font-size="8" font-weight="600" text-anchor="middle" fill="#6b5fd1">Future-proof</text>
  <text x="162.5" y="122" font-size="7" text-anchor="middle" fill="#1f2937">Actions</text>
  <text x="162.5" y="131" font-size="7" text-anchor="middle" fill="#1f2937">Skills</text>
</svg>